<svg xmlns="http://www.w3.org/2000/svg"  viewBox="0 0 1572 306" fill="none">
    <path d="M0.666667 6C0.666667 8.94552 3.05448 11.3333 6 11.3333C8.94552 11.3333 11.3333 8.94552 11.3333 6C11.3333 3.05448 8.94552 0.666667 6 0.666667C3.05448 0.666667 0.666667 3.05448 0.666667 6ZM1560.67 6C1560.67 8.94552 1563.05 11.3333 1566 11.3333C1568.95 11.3333 1571.33 8.94552 1571.33 6C1571.33 3.05448 1568.95 0.666667 1566 0.666667C1563.05 0.666667 1560.67 3.05448 1560.67 6ZM6 7H456V5H6V7ZM507 58V253H509V58H507ZM560 306H985V304H560V306ZM1038 253V58H1036V253H1038ZM1089 7H1566V5H1089V7ZM1038 58C1038 29.8335 1060.83 7 1089 7V5C1059.73 5 1036 28.7289 1036 58H1038ZM985 306C1014.27 306 1038 282.271 1038 253H1036C1036 281.167 1013.17 304 985 304V306ZM507 253C507 282.271 530.729 306 560 306V304C531.833 304 509 281.167 509 253H507ZM456 7C484.167 7 507 29.8335 507 58H509C509 28.7289 485.271 5 456 5V7Z" fill="#909CFF"/>
</svg>