<svg xmlns="http://www.w3.org/2000/svg" viewBox="0 0 355 418" fill="none">
    <path d="M6 417.333C8.94552 417.333 11.3333 414.946 11.3333 412C11.3333 409.054 8.94552 406.667 6 406.667C3.05448 406.667 0.666667 409.054 0.666667 412C0.666667 414.946 3.05448 417.333 6 417.333ZM8.00576 11.3333C10.9513 11.3333 13.3391 8.94553 13.3391 6C13.3391 3.05447 10.9513 0.666656 8.00576 0.666656C5.06025 0.666656 2.67243 3.05447 2.67243 6C2.67243 8.94553 5.06025 11.3333 8.00576 11.3333ZM7 412L7 302H5L5 412H7ZM28 281H332V279H28V281ZM355 258V165H353V258H355ZM332 142H30.0058V144H332V142ZM9.00576 121L9.00576 6H7.00576L7.00576 121H9.00576ZM30.0058 142C18.4078 142 9.00576 132.598 9.00576 121H7.00576C7.00576 133.703 17.3032 144 30.0058 144V142ZM355 165C355 152.297 344.703 142 332 142V144C343.598 144 353 153.402 353 165H355ZM332 281C344.703 281 355 270.703 355 258H353C353 269.598 343.598 279 332 279V281ZM7 302C7 290.402 16.402 281 28 281V279C15.2975 279 5 289.297 5 302H7Z" fill="#909CFF"/>
</svg>