<svg xmlns="http://www.w3.org/2000/svg" viewBox="0 0 715 482" fill="none">
    <path d="M6 481.333C8.94552 481.333 11.3333 478.946 11.3333 476C11.3333 473.054 8.94552 470.667 6 470.667C3.05448 470.667 0.666667 473.054 0.666667 476C0.666667 478.946 3.05448 481.333 6 481.333ZM8 11.3333C10.9455 11.3333 13.3333 8.94553 13.3333 6C13.3333 3.05447 10.9455 0.666656 8 0.666656C5.05448 0.666656 2.66667 3.05447 2.66667 6C2.66667 8.94553 5.05448 11.3333 8 11.3333ZM7 476L7 356H5L5 476H7ZM38 325H682V323H38V325ZM715 292V187H713V292H715ZM682 154H40V156H682V154ZM9 123V6H7L7 123H9ZM40 154C22.8792 154 9 140.121 9 123H7C7 141.225 21.7746 156 40 156V154ZM715 187C715 168.775 700.225 154 682 154V156C699.121 156 713 169.879 713 187H715ZM682 325C700.225 325 715 310.225 715 292H713C713 309.121 699.121 323 682 323V325ZM7 356C7 338.879 20.8792 325 38 325V323C19.7746 323 5 337.775 5 356H7Z" fill="#909CFF"/>
</svg>