<svg viewBox="0 0 372 326" fill="none" xmlns="http://www.w3.org/2000/svg">
<path fill-rule="evenodd" clip-rule="evenodd" d="M-1 -1H373V326H-1V-1ZM-0.415625 -0.416071H45.1656V45.1304H-0.415625V-0.416071ZM46.3344 -0.416071H91.9156V45.1304H46.3344V-0.416071ZM138.666 -0.416071H93.0844V45.1304H138.666V-0.416071ZM139.834 -0.416071H185.416V45.1304H139.834V-0.416071ZM232.166 -0.416071H186.584V45.1304H232.166V-0.416071ZM233.334 -0.416071H278.916V45.1304H233.334V-0.416071ZM325.666 -0.416071H280.084V45.1304H325.666V-0.416071ZM326.834 -0.416071H372.416V45.1304H326.834V-0.416071ZM45.1656 46.2982H-0.415625V91.8446H45.1656V46.2982ZM46.3344 46.2982H91.9156V91.8446H46.3344V46.2982ZM138.666 46.2982H93.0844V91.8446H138.666V46.2982ZM139.834 46.2982H185.416V91.8446H139.834V46.2982ZM232.166 46.2982H186.584V91.8446H232.166V46.2982ZM233.334 46.2982H278.916V91.8446H233.334V46.2982ZM325.666 46.2982H280.084V91.8446H325.666V46.2982ZM326.834 46.2982H372.416V91.8446H326.834V46.2982ZM45.1656 93.0125H-0.415625V138.559H45.1656V93.0125ZM46.3344 93.0125H91.9156V138.559H46.3344V93.0125ZM138.666 93.0125H93.0844V138.559H138.666V93.0125ZM139.834 93.0125H185.416V138.559H139.834V93.0125ZM232.166 93.0125H186.584V138.559H232.166V93.0125ZM233.334 93.0125H278.916V138.559H233.334V93.0125ZM325.666 93.0125H280.084V138.559H325.666V93.0125ZM326.834 93.0125H372.416V138.559H326.834V93.0125ZM45.1656 139.727H-0.415625V185.273H45.1656V139.727ZM46.3344 139.727H91.9156V185.273H46.3344V139.727ZM138.666 139.727H93.0844V185.273H138.666V139.727ZM139.834 139.727H185.416V185.273H139.834V139.727ZM232.166 139.727H186.584V185.273H232.166V139.727ZM233.334 139.727H278.916V185.273H233.334V139.727ZM325.666 139.727H280.084V185.273H325.666V139.727ZM326.834 139.727H372.416V185.273H326.834V139.727ZM45.1656 186.441H-0.415625V231.988H45.1656V186.441ZM46.3344 186.441H91.9156V231.988H46.3344V186.441ZM138.666 186.441H93.0844V231.988H138.666V186.441ZM139.834 186.441H185.416V231.988H139.834V186.441ZM232.166 186.441H186.584V231.988H232.166V186.441ZM233.334 186.441H278.916V231.988H233.334V186.441ZM325.666 186.441H280.084V231.988H325.666V186.441ZM326.834 186.441H372.416V231.988H326.834V186.441ZM45.1656 233.155H-0.415625V278.702H45.1656V233.155ZM46.3344 233.155H91.9156V278.702H46.3344V233.155ZM138.666 233.155H93.0844V278.702H138.666V233.155ZM139.834 233.155H185.416V278.702H139.834V233.155ZM232.166 233.155H186.584V278.702H232.166V233.155ZM233.334 233.155H278.916V278.702H233.334V233.155ZM325.666 233.155H280.084V278.702H325.666V233.155ZM326.834 233.155H372.416V278.702H326.834V233.155ZM45.1656 279.87H-0.415625V325.416H45.1656V279.87ZM46.3344 279.87H91.9156V325.416H46.3344V279.87ZM138.666 279.87H93.0844V325.416H138.666V279.87ZM139.834 279.87H185.416V325.416H139.834V279.87ZM232.166 279.87H186.584V325.416H232.166V279.87ZM233.334 279.87H278.916V325.416H233.334V279.87ZM325.666 279.87H280.084V325.416H325.666V279.87ZM326.834 279.87H372.416V325.416H326.834V279.87Z" fill="url(#paint0_linear_780_13143)" fill-opacity="0.5"/>
<defs>
<linearGradient id="paint0_linear_780_13143" x1="385.065" y1="-9.04923" x2="89.7733" y2="267.415" gradientUnits="userSpaceOnUse">
<stop stop-color="white" stop-opacity="0.1"/>
<stop offset="0.789584" stop-color="white" stop-opacity="0"/>
</linearGradient>
</defs>
</svg>
