<svg viewBox="0 0 32 32" fill="none" xmlns="http://www.w3.org/2000/svg">
<g id="icon-bitcoin" clip-path="url(#clip0_812_13301)">
<path id="Vector" d="M31.5 16C31.5 24.5604 24.5604 31.5 16 31.5C7.43956 31.5 0.5 24.5604 0.5 16C0.5 7.43956 7.43956 0.5 16 0.5C24.5604 0.5 31.5 7.43956 31.5 16ZM22.6468 13.7919C22.9554 11.7294 21.3849 10.6207 19.2374 9.88106L19.9341 7.08719L18.2332 6.66337L17.5551 9.38363C17.1079 9.27219 16.6487 9.16712 16.1924 9.063L16.8754 6.32487L15.1756 5.90106L14.4785 8.69394C14.1084 8.60962 13.7451 8.52631 13.3924 8.43869L13.3944 8.42994L11.0487 7.84431L10.5963 9.66069C10.5963 9.66069 11.8582 9.94987 11.8316 9.96775C12.5205 10.1397 12.645 10.5955 12.6241 10.9568L11.8306 14.1396C11.8781 14.1517 11.9396 14.1692 12.0074 14.1963C11.9508 14.1823 11.8902 14.1667 11.8277 14.1517L10.7154 18.6104C10.6311 18.8196 10.4175 19.1335 9.936 19.0144C9.95294 19.0391 8.69975 18.7058 8.69975 18.7058L7.85537 20.6525L10.0688 21.2042C10.4805 21.3074 10.8841 21.4154 11.2812 21.5171L10.5774 24.3429L12.2762 24.7667L12.9733 21.9709C13.4238 22.093 13.8757 22.2102 14.3287 22.3226L13.6341 25.1052L15.3349 25.5291L16.0387 22.7086C18.939 23.2574 21.1199 23.036 22.0379 20.4131C22.7776 18.3012 22.0011 17.0831 20.4751 16.2887C21.5864 16.0326 22.4235 15.3017 22.6468 13.7919ZM18.7607 19.2406C18.2351 21.3524 14.679 20.2107 13.5261 19.9245L14.4601 16.1808C15.6129 16.4685 19.3101 17.0381 18.7607 19.2406ZM19.2868 13.7614C18.8072 15.6824 15.8474 14.7064 14.8872 14.4671L15.734 11.0717C16.6942 11.3109 19.7862 11.7575 19.2868 13.7614Z" fill="#F2F3F7"/>
</g>
<defs>
<clipPath id="clip0_812_13301">
<rect width="32" height="32" fill="white"/>
</clipPath>
</defs>
</svg>
