<svg viewBox="0 0 32 32" xmlns="http://www.w3.org/2000/svg" color="currentColor">
<g id="close">
<path id="Vector" d="M17.8786 16L26.2786 7.61334C26.5297 7.36227 26.6707 7.02174 26.6707 6.66667C26.6707 6.3116 26.5297 5.97107 26.2786 5.72C26.0275 5.46893 25.687 5.32788 25.332 5.32788C24.9769 5.32788 24.6364 5.46893 24.3853 5.72L15.9986 14.12L7.61195 5.72C7.36088 5.46893 7.02035 5.32788 6.66528 5.32788C6.31021 5.32788 5.96969 5.46893 5.71862 5.72C5.46754 5.97107 5.32649 6.3116 5.32649 6.66667C5.32649 7.02174 5.46754 7.36227 5.71862 7.61334L14.1186 16L5.71862 24.3867C5.59365 24.5106 5.49445 24.6581 5.42676 24.8206C5.35907 24.983 5.32422 25.1573 5.32422 25.3333C5.32422 25.5094 5.35907 25.6836 5.42676 25.8461C5.49445 26.0086 5.59365 26.1561 5.71862 26.28C5.84257 26.405 5.99004 26.5042 6.15251 26.5719C6.31499 26.6396 6.48927 26.6744 6.66528 26.6744C6.8413 26.6744 7.01557 26.6396 7.17805 26.5719C7.34053 26.5042 7.488 26.405 7.61195 26.28L15.9986 17.88L24.3853 26.28C24.5092 26.405 24.6567 26.5042 24.8192 26.5719C24.9817 26.6396 25.1559 26.6744 25.332 26.6744C25.508 26.6744 25.6822 26.6396 25.8447 26.5719C26.0072 26.5042 26.1547 26.405 26.2786 26.28C26.4036 26.1561 26.5028 26.0086 26.5705 25.8461C26.6382 25.6836 26.673 25.5094 26.673 25.3333C26.673 25.1573 26.6382 24.983 26.5705 24.8206C26.5028 24.6581 26.4036 24.5106 26.2786 24.3867L17.8786 16Z" fill="#F2F3F7"/>
</g>
</svg>
