<svg viewBox="0 0 24 24" fill="none" xmlns="http://www.w3.org/2000/svg">
<g id="facebook">
<g id="Vector">
<path d="M12.6845 21.9999V14.2549H10.0781V11.2365H12.6845V9.01047C12.4842 7.01186 13.9421 5.22933 15.9407 5.0291C16.1487 5.00826 16.3581 5.00539 16.5667 5.02053C17.3446 5.01779 18.1221 5.05752 18.8957 5.13953V7.83918L17.2974 7.83996C16.0441 7.83996 15.8015 8.43547 15.8015 9.30937V11.2365H18.7905L18.4012 14.2549H15.8016V21.9999L12.6845 21.9999Z" fill="#0C0C0C"/>
<path d="M12.6845 21.9999V14.2549H10.0781V11.2365H12.6845V9.01047C12.4842 7.01186 13.9421 5.22933 15.9407 5.0291C16.1487 5.00826 16.3581 5.00539 16.5667 5.02053C17.3446 5.01779 18.1221 5.05752 18.8957 5.13953V7.83918L17.2974 7.83996C16.0441 7.83996 15.8015 8.43547 15.8015 9.30937V11.2365H18.7905L18.4012 14.2549H15.8016V21.9999L12.6845 21.9999Z" fill="url(#paint0_linear_787_11583)" fill-opacity="0.06"/>
</g>
<path id="Vector_2" d="M20.9971 2H2.99609C2.44384 2 1.99609 2.44769 1.99609 3V21.001C1.99609 21.5533 2.44384 22.001 2.99609 22.001H20.9971C21.5494 22.001 21.9971 21.5533 21.9971 21.001V3C21.9971 2.44769 21.5494 2 20.9971 2ZM18.8918 7.83923L17.2936 7.84002C16.0403 7.84002 15.7977 8.43554 15.7977 9.30944V11.2365H18.7867L18.3975 14.2549H15.7978V21.9999H12.6807V14.2549H10.0743V11.2365H12.6807V9.0105C12.4804 7.0119 13.9383 5.22937 15.9369 5.02918C16.145 5.00831 16.3544 5.00544 16.5629 5.02057C17.3408 5.01782 18.1183 5.05756 18.8918 5.13959V7.83923Z" fill="#909CFF"/>
</g>
<defs>
<linearGradient id="paint0_linear_787_11583" x1="10.0781" y1="5.01099" x2="22.2793" y2="8.29481" gradientUnits="userSpaceOnUse">
<stop stop-color="white" stop-opacity="0"/>
<stop offset="0.0001" stop-color="white" stop-opacity="0.4"/>
<stop offset="1" stop-color="white" stop-opacity="0.05"/>
</linearGradient>
</defs>
</svg>
