<svg viewBox="0 0 25 24" fill="none" xmlns="http://www.w3.org/2000/svg">
<g id="info-circle">
<path id="Vector" d="M12.5 2C10.5222 2 8.58879 2.58649 6.9443 3.6853C5.29981 4.78412 4.01809 6.3459 3.26121 8.17317C2.50433 10.0004 2.3063 12.0111 2.69215 13.9509C3.078 15.8907 4.03041 17.6725 5.42894 19.0711C6.82746 20.4696 8.60929 21.422 10.5491 21.8079C12.4889 22.1937 14.4996 21.9957 16.3268 21.2388C18.1541 20.4819 19.7159 19.2002 20.8147 17.5557C21.9135 15.9112 22.5 13.9778 22.5 12C22.4971 9.34874 21.4425 6.80691 19.5678 4.93219C17.6931 3.05746 15.1513 2.00295 12.5 2ZM12.5 20C10.9178 20 9.37104 19.5308 8.05544 18.6518C6.73985 17.7727 5.71447 16.5233 5.10897 15.0615C4.50347 13.5997 4.34504 11.9911 4.65372 10.4393C4.9624 8.88743 5.72433 7.46197 6.84315 6.34315C7.96197 5.22433 9.38743 4.4624 10.9393 4.15372C12.4911 3.84504 14.0997 4.00346 15.5615 4.60896C17.0233 5.21447 18.2727 6.23984 19.1518 7.55544C20.0308 8.87103 20.5 10.4177 20.5 12C20.4976 14.121 19.6539 16.1544 18.1542 17.6542C16.6544 19.1539 14.621 19.9976 12.5 20ZM12.5 11.5C12.2348 11.5 11.9804 11.6054 11.7929 11.7929C11.6054 11.9804 11.5 12.2348 11.5 12.5V15.5C11.5 15.7652 11.6054 16.0196 11.7929 16.2071C11.9804 16.3946 12.2348 16.5 12.5 16.5C12.7652 16.5 13.0196 16.3946 13.2071 16.2071C13.3946 16.0196 13.5 15.7652 13.5 15.5V12.5C13.5 12.2348 13.3946 11.9804 13.2071 11.7929C13.0196 11.6054 12.7652 11.5 12.5 11.5ZM12.5 7.5C12.2528 7.5 12.0111 7.57331 11.8055 7.71066C11.6 7.84801 11.4398 8.04324 11.3452 8.27165C11.2505 8.50005 11.2258 8.75139 11.274 8.99386C11.3223 9.23634 11.4413 9.45907 11.6161 9.63388C11.7909 9.8087 12.0137 9.92775 12.2561 9.97598C12.4986 10.0242 12.75 9.99946 12.9784 9.90485C13.2068 9.81024 13.402 9.65002 13.5393 9.44446C13.6767 9.2389 13.75 8.99723 13.75 8.75C13.75 8.41848 13.6183 8.10054 13.3839 7.86612C13.1495 7.6317 12.8315 7.5 12.5 7.5Z" fill="#F2F3F7"/>
</g>
</svg>
