<svg xmlns="http://www.w3.org/2000/svg" width="70" height="60" viewBox="166 166 70 60" fill="none">
    <path d="M205.664 206.002L203.334 210.006L201.004 214.003L198.666 210.006L196.329 206.002L198.666 201.999L200.996 198.002L203.334 201.999L205.664 206.002Z" fill="white"/>
    <path d="M205.664 174L203.334 178.004L200.996 182.001L198.666 186.005L196.336 190.001L193.999 193.998L191.668 198.002L189.331 201.999L187.001 206.002L184.663 210.006L182.333 214.003L179.996 218.007L177.665 222.003L175.328 226H166L168.33 222.003L170.668 218.007L172.998 214.003L175.328 210.006L177.665 206.002L180.003 201.999L182.333 198.002L184.663 193.998L187.001 190.001L189.331 186.005L191.668 182.001L193.999 178.004L196.329 174L198.666 170.004L200.996 166L203.334 170.004L205.664 174Z" fill="white"/>
    <path d="M236 226H226.665L224.335 222.003L221.997 218.007L219.667 214.003L217.33 210.006L214.999 206.002L212.662 201.999L210.332 198.002L207.994 193.998L205.664 190.001L208.001 186.005L210.332 182.001L212.669 186.005L214.999 190.001L217.33 193.998L219.667 198.002L221.997 201.999L224.335 206.002L226.665 210.006L229.002 214.003L231.332 218.007L233.67 222.003L236 226Z" fill="white"/>
    <path d="M217.337 226H184.663L187.001 222.003L189.331 218.007H212.669L214.999 222.003L217.337 226Z" fill="white"/>
</svg>

