<svg viewBox="0 0 764 858" fill="none" xmlns="http://www.w3.org/2000/svg">
<path fill-rule="evenodd" clip-rule="evenodd" d="M0 0H982V858H0V0ZM1.53437 1.53214H121.216V121.039H1.53437V1.53214ZM124.284 1.53214H243.966V121.039H124.284V1.53214ZM366.716 1.53214H247.034V121.039H366.716V1.53214ZM369.784 1.53214H489.466V121.039H369.784V1.53214ZM612.216 1.53214H492.534V121.039H612.216V1.53214ZM615.284 1.53214H734.966V121.039H615.284V1.53214ZM857.716 1.53214H738.034V121.039H857.716V1.53214ZM860.784 1.53214H980.466V121.039H860.784V1.53214ZM121.216 124.104H1.53437V243.611H121.216V124.104ZM124.284 124.104H243.966V243.611H124.284V124.104ZM366.716 124.104H247.034V243.611H366.716V124.104ZM369.784 124.104H489.466V243.611H369.784V124.104ZM612.216 124.104H492.534V243.611H612.216V124.104ZM615.284 124.104H734.966V243.611H615.284V124.104ZM857.716 124.104H738.034V243.611H857.716V124.104ZM860.784 124.104H980.466V243.611H860.784V124.104ZM121.216 246.675H1.53437V366.182H121.216V246.675ZM124.284 246.675H243.966V366.182H124.284V246.675ZM366.716 246.675H247.034V366.182H366.716V246.675ZM369.784 246.675H489.466V366.182H369.784V246.675ZM612.216 246.675H492.534V366.182H612.216V246.675ZM615.284 246.675H734.966V366.182H615.284V246.675ZM857.716 246.675H738.034V366.182H857.716V246.675ZM860.784 246.675H980.466V366.182H860.784V246.675ZM121.216 369.246H1.53437V488.754H121.216V369.246ZM124.284 369.246H243.966V488.754H124.284V369.246ZM366.716 369.246H247.034V488.754H366.716V369.246ZM369.784 369.246H489.466V488.754H369.784V369.246ZM612.216 369.246H492.534V488.754H612.216V369.246ZM615.284 369.246H734.966V488.754H615.284V369.246ZM857.716 369.246H738.034V488.754H857.716V369.246ZM860.784 369.246H980.466V488.754H860.784V369.246ZM121.216 491.818H1.53437V611.325H121.216V491.818ZM124.284 491.818H243.966V611.325H124.284V491.818ZM366.716 491.818H247.034V611.325H366.716V491.818ZM369.784 491.818H489.466V611.325H369.784V491.818ZM612.216 491.818H492.534V611.325H612.216V491.818ZM615.284 491.818H734.966V611.325H615.284V491.818ZM857.716 491.818H738.034V611.325H857.716V491.818ZM860.784 491.818H980.466V611.325H860.784V491.818ZM121.216 614.389H1.53437V733.896H121.216V614.389ZM124.284 614.389H243.966V733.896H124.284V614.389ZM366.716 614.389H247.034V733.896H366.716V614.389ZM369.784 614.389H489.466V733.896H369.784V614.389ZM612.216 614.389H492.534V733.896H612.216V614.389ZM615.284 614.389H734.966V733.896H615.284V614.389ZM857.716 614.389H738.034V733.896H857.716V614.389ZM860.784 614.389H980.466V733.896H860.784V614.389ZM121.216 736.961H1.53437V856.468H121.216V736.961ZM124.284 736.961H243.966V856.468H124.284V736.961ZM366.716 736.961H247.034V856.468H366.716V736.961ZM369.784 736.961H489.466V856.468H369.784V736.961ZM612.216 736.961H492.534V856.468H612.216V736.961ZM615.284 736.961H734.966V856.468H615.284V736.961ZM857.716 736.961H738.034V856.468H857.716V736.961ZM860.784 736.961H980.466V856.468H860.784V736.961Z" fill="url(#paint0_linear_354_24229)" fill-opacity="0.5"/>
<defs>
<linearGradient id="paint0_linear_354_24229" x1="608" y1="878" x2="61.0098" y2="187.2" gradientUnits="userSpaceOnUse">
<stop stop-color="white" stop-opacity="0.1"/>
<stop offset="0.789584" stop-color="white" stop-opacity="0"/>
<stop offset="1" stop-color="white" stop-opacity="0"/>
</linearGradient>
</defs>
</svg>
