<svg  viewBox="0 0 26 26" fill="none" xmlns="http://www.w3.org/2000/svg">
<rect width="26" height="26" rx="13" fill="#F6D43D" fill-opacity="0.2"/>
<path d="M9.83341 20.6667V19H9.00008C8.76397 19 8.56605 18.9201 8.40633 18.7604C8.24661 18.6007 8.16675 18.4028 8.16675 18.1667C8.16675 17.9306 8.24661 17.7326 8.40633 17.5729C8.56605 17.4132 8.76397 17.3333 9.00008 17.3333H9.83341V15.6667H9.00008C8.76397 15.6667 8.56605 15.5868 8.40633 15.4271C8.24661 15.2674 8.16675 15.0694 8.16675 14.8333C8.16675 14.5972 8.24661 14.3993 8.40633 14.2396C8.56605 14.0799 8.76397 14 9.00008 14H9.83341V7.33333C9.83341 7.09722 9.91328 6.89931 10.073 6.73958C10.2327 6.57986 10.4306 6.5 10.6667 6.5H15.2501C16.5279 6.5 17.6112 6.94444 18.5001 7.83333C19.389 8.72222 19.8334 9.80556 19.8334 11.0833C19.8334 12.3611 19.389 13.4444 18.5001 14.3333C17.6112 15.2222 16.5279 15.6667 15.2501 15.6667H11.5001V17.3333H14.0001C14.2362 17.3333 14.4341 17.4132 14.5938 17.5729C14.7536 17.7326 14.8334 17.9306 14.8334 18.1667C14.8334 18.4028 14.7536 18.6007 14.5938 18.7604C14.4341 18.9201 14.2362 19 14.0001 19H11.5001V20.6667C11.5001 20.9028 11.4202 21.1007 11.2605 21.2604C11.1008 21.4201 10.9029 21.5 10.6667 21.5C10.4306 21.5 10.2327 21.4201 10.073 21.2604C9.91328 21.1007 9.83341 20.9028 9.83341 20.6667ZM11.5001 14H15.2501C16.0556 14 16.7431 13.7153 17.3126 13.1458C17.882 12.5764 18.1667 11.8889 18.1667 11.0833C18.1667 10.2778 17.882 9.59028 17.3126 9.02083C16.7431 8.45139 16.0556 8.16667 15.2501 8.16667H11.5001V14Z" fill="#FBE41A"/>
</svg>
