<svg viewBox="0 0 24 24" fill="none" xmlns="http://www.w3.org/2000/svg">
<path d="M17.6875 21.7441C17.2378 21.7441 16.801 21.5939 16.4463 21.3174L12.416 18.1953L9.71391 21.1777C9.59498 21.3088 9.44338 21.4061 9.27458 21.4594C9.10579 21.5128 8.92586 21.5204 8.75316 21.4815C8.58047 21.4425 8.4212 21.3585 8.29163 21.2378C8.16206 21.1172 8.06682 20.9644 8.01566 20.7949L5.99516 14.1133L2.37016 12.8525C1.9788 12.7162 1.6382 12.464 1.3936 12.1294C1.149 11.7949 1.01198 11.3938 1.00075 10.9796C0.989516 10.5653 1.1046 10.1574 1.33071 9.81009C1.55682 9.46278 1.88325 9.19249 2.26664 9.03513L20.1866 1.79977C20.5285 1.66078 20.9017 1.61704 21.2665 1.6732C21.6313 1.72936 21.9741 1.88333 22.2583 2.11873C22.5426 2.35414 22.7578 2.66218 22.881 3.01011C23.0042 3.35804 23.0308 3.73285 22.958 4.0947L19.6953 20.1113C19.5987 20.5725 19.3465 20.9864 18.9809 21.2837C18.6153 21.5809 18.1587 21.7435 17.6875 21.7441H17.6875Z" fill="#909CFF"/>
<path d="M8.97282 21.5058C8.75822 21.5058 8.54931 21.4368 8.37697 21.3089C8.20462 21.1811 8.078 21.0011 8.01582 20.7958L5.84782 13.6366C5.78005 13.4135 5.79245 13.1737 5.88287 12.9588C5.9733 12.7439 6.13605 12.5674 6.34293 12.4599L16.9103 6.9579C17.1221 6.84736 17.3666 6.81635 17.5993 6.87047C17.832 6.9246 18.0377 7.06029 18.179 7.25296C18.3203 7.44563 18.3879 7.68254 18.3696 7.92078C18.3513 8.15902 18.2483 8.38282 18.0793 8.55166L10.9963 15.6347L9.95231 20.7069C9.9077 20.9248 9.79165 21.1216 9.62254 21.2662C9.45343 21.4107 9.24093 21.4947 9.0187 21.5048C9.00308 21.5058 8.98746 21.5058 8.97282 21.5058Z" fill="#0C0C0C"/>
<path d="M8.97282 21.5058C8.75822 21.5058 8.54931 21.4368 8.37697 21.3089C8.20462 21.1811 8.078 21.0011 8.01582 20.7958L5.84782 13.6366C5.78005 13.4135 5.79245 13.1737 5.88287 12.9588C5.9733 12.7439 6.13605 12.5674 6.34293 12.4599L16.9103 6.9579C17.1221 6.84736 17.3666 6.81635 17.5993 6.87047C17.832 6.9246 18.0377 7.06029 18.179 7.25296C18.3203 7.44563 18.3879 7.68254 18.3696 7.92078C18.3513 8.15902 18.2483 8.38282 18.0793 8.55166L10.9963 15.6347L9.95231 20.7069C9.9077 20.9248 9.79165 21.1216 9.62254 21.2662C9.45343 21.4107 9.24093 21.4947 9.0187 21.5048C9.00308 21.5058 8.98746 21.5058 8.97282 21.5058Z" fill="url(#paint0_linear_346_12424)" fill-opacity="0.06"/>
<defs>
<linearGradient id="paint0_linear_346_12424" x1="5.80469" y1="6.84448" x2="21.3778" y2="13.767" gradientUnits="userSpaceOnUse">
<stop stop-color="white" stop-opacity="0"/>
<stop offset="0.0001" stop-color="white" stop-opacity="0.4"/>
<stop offset="1" stop-color="white" stop-opacity="0.05"/>
</linearGradient>
</defs>
</svg>
